/* XPM */
static char *_0a022ce415b4a2fa91bbc5acfe8856cc0n0CDHReztiWpfX[] = {
/* columns rows colors chars-per-pixel */
"50 50 136 2 ",
"   c black",
".  c #121311",
"X  c #1A1B17",
"o  c #1E1F1A",
"O  c #262723",
"+  c #262823",
"@  c #2A2C27",
"#  c #2B2D28",
"$  c #2F312C",
"%  c #33342E",
"&  c #373934",
"*  c #393A35",
"=  c #3D3F3A",
"-  c #3F403B",
";  c #41433D",
":  c #444641",
">  c #474844",
",  c #494B46",
"<  c #4D4E49",
"1  c #4F504B",
"2  c #51524D",
"3  c #555651",
"4  c #585753",
"5  c #575853",
"6  c #595A55",
"7  c #5D5E59",
"8  c #615F5C",
"9  c #5F605C",
"0  c #61625D",
"q  c #636261",
"w  c #676863",
"e  c #6A6A65",
"r  c #67676B",
"t  c #6C6C6A",
"y  c #73726E",
"u  c #6C6E70",
"i  c #767673",
"p  c #767874",
"a  c #7B7A76",
"s  c #7E7F7B",
"d  c #82827E",
"f  c #878683",
"g  c #8B8A86",
"h  c #8C8C88",
"j  c #908C87",
"k  c #93928D",
"l  c #99938C",
"z  c #979691",
"x  c #9B9995",
"c  c #9E9C98",
"v  c #A29F9C",
"b  c #A5A29D",
"n  c #AAA49F",
"m  c #B6AA99",
"M  c #A6A4A2",
"N  c #A8A6A2",
"B  c #ADAAA5",
"V  c #B2ACA5",
"C  c #B2ADAA",
"Z  c #B5B2AD",
"A  c #B8B4AF",
"S  c #B5B1B1",
"D  c #BAB6B4",
"F  c #BDB9B5",
"G  c #BDB7B8",
"H  c #BEBAB9",
"J  c #C0BAB7",
"K  c #CABEB2",
"L  c #C2BDBC",
"P  c #CBC1B2",
"I  c #C5C1BE",
"U  c #C9C3BE",
"Y  c #D3C9BD",
"T  c #C6C2C1",
"R  c #C9C5C3",
"E  c #CDC9C5",
"W  c #CEC7C8",
"Q  c #CFCBC9",
"!  c #D3CEC4",
"~  c #D8CFC5",
"^  c #D2CDCB",
"/  c #D7D1C7",
"(  c #DAD2C7",
")  c #D5D1CD",
"_  c #DBD5CE",
"`  c #DFD9CF",
"'  c #D7D1D1",
"]  c #DAD5D3",
"[  c #DED9D5",
"{  c #DED7D9",
"}  c #DFDAD8",
"|  c #E0D8CF",
" . c #E1DCD5",
".. c #E2DDD9",
"X. c #E9DFD8",
"o. c #E6E2DC",
"O. c #E9E6DE",
"+. c #E6E2E1",
"@. c #EAE7E0",
"#. c #ECE6E3",
"$. c #EAE8E0",
"%. c #ECE9E1",
"&. c #EEE9E3",
"*. c #EBE8E4",
"=. c #EDEBE4",
"-. c #EEEBE4",
";. c #EFE9E6",
":. c #EEECE5",
">. c #EFEBE8",
",. c #F0EBE6",
"<. c #F0EDE4",
"1. c #F0EDE5",
"2. c #F1EFE7",
"3. c #F1EBE8",
"4. c #F2EEE9",
"5. c #F2F1E7",
"6. c #F2F0E9",
"7. c #F3F0EB",
"8. c #F4F0E8",
"9. c #F6F3EB",
"0. c #F5F2EC",
"q. c #F6F3EC",
"w. c #F7F4ED",
"e. c #F7F4EF",
"r. c #F8F5EE",
"t. c #F9F6EE",
"y. c #FAF6EF",
"u. c #FBF7F2",
"i. c #FBF8F1",
"p. c #FDFAF2",
"a. c #FEFBF3",
"s. c #FFFEF6",
"d. c #FFFFF8",
"f. c #FFFFFA",
"g. c #FFFFFC",
"h. c white",
/* pixels */
"K O.] X * g q.o.o.o.} o.U F I H U U U U R L @.O.@.%.-.4.Q R ^ T U H F H G I  . .[ o.O.q.d > % / / ! ",
"-.9.4.% ; 0 p.%.-.O.O.o.O.E H L I J L L L T  .3.O.@.-...L I L I F L F F [ :.-.:.O.%.O.i.y 2 - 5.1.| ",
"[ 4.h.; 2 0 p.%.O.-.O.O.O.1.5.o.R R I E R R Q ..q.-.X.L T L L H I L ..q.:.-.-.$.*.%.1.p.t 5 > h.-. .",
"O % ; 5 5 1 h.%.$.-.:.*.O.o.%.[ E ] 1.:.1.' T L S F G H ^ 4.1.1.R G ^ %.*.O.O.-.O.%.%.s.1 2 5 - & & ",
"; , 5 , 1 ; o.1.:.$.O.O.*.%.%.[ H 6.$.-.%.1.E I L T L R :.%.@.%.1.Z  .%.@.O.@.O.%.%.:.o.: 3 1 > < ; ",
"y y t ; - = B 9.%.*.o.O.o.O.*.%.O.*.:.%.*.%.) I L L T ' 1.%.-.%.O.O.%.$.O.@.@.@.%.%.w.B : - - 0 p d ",
"9.i.i.s.o.N g w.:.%.o.O.O.O.%.O.O.O.-.$.@.:.) T R T H ^ -.#.*.*.*.*.@.@.O.@.$.@.:.%.w.f M o.f.p.y.w.",
"O.%.*.*.:.9.6.] [ ..o.O.O.O.%.O.O.*.O.-.-.$.I T T T I H -.-.@.@.%.$.O.@.O.*.$...] ] ] y.6.:.+.$.%.%.",
"` %.o.%.O.:.-.[ [ } } [ ..$.@.O.@.O.%.O.[ T R L L R L L H ] o.O.:.@.5.O.:.} ^ ' ] [ ] :.O.-.*.O.@.o.",
"_ %.O.@.O.*.O.X.] ........{ *.O.O.-.*.%.E I ^ I T T L ^ T R %.%.o.*.*.*.[ ) ] ' _ ] [ $.O.O.o.O.@. .",
"_ @.-.*.$.*.*.X.[ ........] } @.*.O.%.O.@.-.9.L R T I 4.4.1.%.%.O.-.*.] [ ] ] ^ ] ' o.@.O.O.%.*.O. .",
"| -.-.%.O.-.*.*.] ..} } ....[ { %.%.*.@.O.@.-.^ T T Q :.*.-.-.-.*.-.} [ ] [ ] ' ) _ %.:.o.-.O.O.O.o.",
"V 6.$.%.:.%.-.$.o.] ......} ..} o.-.@.%.O.O.@.%.L H %.,.-.-.:.$.:.X.] { ] ' ' ' ) } $.-.-.O.O.O.%.R ",
"n ) -.*.%.%.-.*.-...............[ @.@.@.O.O.O.#.O.O.1.*.%.:.-.%.*.{ { [ [ ] ) ' ] :.@.@.*.O.O.O.U A ",
"A D 9.%.-.O.-.-.-.:.......} ........@.*.O.@.@.O.%.-.-.*.%.-.%.-.X.{  .] ) ) ^ _ %.O.*.O.o.*.*.1.C J ",
"C D X.] o.-.-.-.-.-.-.....+.....[  .%.O.O.*.*.@.@.-.-.-.1.%.%.:.} ] ] ] ' ' ' @.-.O.*.o.@._ U _ Z D ",
"V F T R W O.-.-.-.-.-.1.+.} ..} } [ %.@.*.o.O.O.*.O.O.-.O.:.O.O.] ] ' ] ' ..%.%.O.O.%.O.o.C B C F C ",
"F F H ' 4.@.-.:.-.-.-.-.-.:...X.[ [ 4.9.:.o.O.O.O.O.-.O.O.:.5.9.] ' ] o.@.@.*.@.O.*.O.%.:.6.E G D U ",
"I L H 4.,.*.-.4.-.-.%.:.%.-.-.$.:.:.N F %.p.9.9.w.y.w.i.s.:.A x 1.%.%.%.*.O.%.@.O.O.-.$.$.%.1.F L ' ",
"L L W 9.@.%.-.%.@.-.-.-.-.%.O.O.*.4.F , , 9 a f k z h p 3 - - Z 1.@.%.%.*.O.%.@.*.o.%.O.-.*.6.L F ! ",
"D L L 4.@.-.:.1.] R :.-.%.%.*.*.O.o.1.2 0 7 0 2 5 5 6 1 5 6 : 5.@.O.%.O.%.@.O.1.I / @.@.*.O.5.G L R ",
"R H L ^ 9.4.1.-.T L 1.*.*.$.%.O.O.O.y.7 0 e < , 2 ; , , 9 2 2 f.*.@.-.*.@.O.O.1.L D O.,.1.5.R H F D ",
"-. .T L R ] ] L R ) q.%.$.@.O.%.O.O.1.d w < $.[ Q )  .>., 0 i u.*.%.O.@.%.%.%.4.! D S R ' E L L { +.",
"o.1.o.L T R T R R T I Q -.%.O.O.O.o.9.k 5 3 [ O.O.-.:.[ , 3 k 9.@.@.o.@.@.@.E G I I H H L I L [ O. .",
"o.-.6.T R T T R I T R I S ..O.-.@.o.1.k 6 , Q :.o.O.:.) < 9 k :.%.*.O.%.o.D L I H L T L T T F 1.O.O.",
"_ @.q.H R R T T T I R I H ..O.*.o.*.6.z 6 3 / :.O.o.:.^ 1 9 k w.%.O.O.O. .A F L T T R R R T L 1.O.[ ",
"X.@. .L R R R R R T L E #.-.*.-.$.$.y.k 7 , } 6.5.:.5...: 6 g q.-.O.o.*.%.O.E F L R L L L L L  .%.X.",
"o.[ L H R ' ^ H R ^ 5.4.-.*.*.O.*.-.i.a 1 > :.o./ ^ ..1.> 3 s y.O.O.O.@.*.O.:.9.R L F ^ ] L H F ` O.",
"Z L T ^ 6.*.5.%.L T :.-.%.%.*.:.-.:.s.1 , 7 1 1 1 , ; 1 6 3 9 s.%.@.O.@.%.%.%.1.D F :.:.:.1.Q J C F ",
"Z H L 1.*.*.$.-.] R :.-.%.:.:.:.o.:.:.> 5 6 6 6 2 5 1 1 6 5 : :.%.O.O.O.*.O.O.-.I [ :.-.%.O.1.D Z D ",
"I F R q.*.%.:.%.o.@.@.-.:.$.:.o.*.6.A - , 5 a h z k h p 6 > - D 1.+.O.%.@.O.*.O.%.O.*.@.*.O.%.L Z b ",
") L L 6.O.*.-.%.-.o.@.-.:.%.$.-.:.:.c Z :.a.i.w.w.w.w.i.f.:.Z x %.O.%.%.O.O.*.%.%.%.O.*.O.o.1.C Z N ",
"D H R ) 6.:.*.-.*.O.%.%.:.*...] ' ' 1.4.%.%.@.@.@.%.*.%.%.:.1.1.] ) ' o.+.*.O.%.%.%.@.@.@.,.U C C b ",
"Z F T R R @.*.O.O.O.O.%.o.) ] ] ' ' @.@.O.@.%.@.%.@.O.%.O.O.%.-.] ' [ ^ ' X.1.-.%.:.-.@.O.S S V v l ",
"D H o.] +.-.*.*.:.:.:.]  .] ] ] ^ ] @.O.O.@.%.-.O.O.@.%.*.%.-.%.] ] ] ^ ' [ [ %.1.%.-.*.-._ R ~ v l ",
"Z H 6.>.>.*.*.@.-.o.[ ] ] ] ] ] ] ..@.%.@.%.@.-.*.*.-.-.-.-.%.-. .' ' ] ' } ..} -.-.-.-.@.-.O.4.C C ",
"Z ' *.%.-.:.>.@.1.} [ ] ] ] [ [ ) @.@.@.@.%.%.%.o.X.-.*.$.:.%.O.*.] ] [ [  ...} ..1.:.%.#.O.o.o.U b ",
"B q.*.-.>.-.>.-...] ..[ { {  .]  .%.@.@.O.O.*.*.F G *.-.%.$.%.O.%. .] ] ] ..{  .} o.%.%.@...o.O.#.Z ",
"` -.$.:.,.3.3.;.] [ ] } [ [ { ] :.*.%.O.*.O.:.E D H E 1.%.@.@.*.O.*.) ] ....{ [ ..] O.O.O.*.@.o.O. .",
"` -.%.-.>.*.>.*.] ..[ [ [ ] [ @.%.O.%.$.-.1.5.F H H G 9.1.1.%.%.O.%.o.] [ } ..[ } ' o.O.O.O.O. . . .",
"( :.:.*.>.-.>...} [ [ [ [ ] @.o.:.O.O.:.I F U F L L I Q L R ,.%.O.O.O.o.] [ } ..' ]  .@.@.@.@.o. .` ",
" .:.*.>.>.>.>.} o.} [ { } :.o.@.:.o.O.O._ D D J L H H T I [ O.*.O.o.O.o.%...] [ ' _ ' %.-.@.O.O.X.Y ",
" .$.*.>.>.e.e.} ....+.*.1.o.*.o.-.-.*.O.%.O.F L L T L H :.:.1.O.@.O.o.O.o.@.O. .] ' ^ q.q.:.o.@.o.~ ",
"1.p.u.h.+.H M e.-.3.>.o.O.o.*.o.O.O.O.O.O.%.E F L I L ^ 1.%.%.:.%.O.*.o.O.O.O.%.%.O.9.d N  .f.p.9.%.",
"w t y q r r H 6.3.-.4.O.o.o.O.%.o.*.O.-.*.1.) H L L T ^ 1.-.$.*.-.O.-.@.O.O.O.O.*.o.1.b & & ; 3 e y ",
"a = 8 e p u ..4.;.%.*.O.%.%.%.] D 4.*.O.%.5.I H L H L T :.-.%.:.9.F [ %.O.O.O.O.O.O.%. .= ; = ; % # ",
"= @ : w t t p.*.;.*.O.O.*.O.%.[ G L 1.1.4.) H F H H L H R 6.4.q.E H ^ %.O.O.O.O.O.*.%.h.% = : # + o ",
" .o.h., 5 i u.o.@.-.O.o.o.*.:.o.T L Z I F H L [ *.9.[ H L F I F H H  .1.O.O.O.o.o.O.@.p.3 ; O h.O.U ",
" .1.O.$ , a 3.O.@.O.o.o.*.' L L L I T H L F } O.O.:.6. .L L L I H H S Z E %.@.o.O.O.O.p.4 & o o.@.! ",
" .O.| 3 8 j X.|  .| O.X.M C C C S R U D T L O.( (  .o.o.B C C V B B V B b L  . .P Y ( 3.7   . ( o.m "
};
