/* XPM */
static char *_b83bc01cd394b30dddcc9326d6fe8dbfQQAKyk5X877w7sx[] = {
/* columns rows colors chars-per-pixel */
"50 50 224 2 ",
"   c black",
".  c #1B1B17",
"X  c #282A25",
"o  c #33342E",
"O  c #393A35",
"+  c #3D3E39",
"@  c #353732",
"#  c #2D322C",
"$  c #3F403B",
"%  c #41423E",
"&  c #444541",
"*  c #4A4B46",
"=  c #4D4F4A",
"-  c #474944",
";  c #4F504B",
":  c #51524D",
">  c #555651",
",  c #585652",
"<  c #575853",
"1  c #5D5E5A",
"2  c #595B55",
"3  c #5F6058",
"4  c #61625C",
"5  c #6B6B66",
"6  c #6D6C6B",
"7  c #666665",
"8  c #73736E",
"9  c #6D6E70",
"0  c #7A7A74",
"q  c #767575",
"w  c #DF9F17",
"e  c #E79C02",
"r  c #EA9D04",
"t  c #E69C0B",
"y  c #ED9A0C",
"u  c #E59604",
"i  c #F49F0E",
"p  c #E79C13",
"a  c #ED9C15",
"s  c #F49B12",
"d  c #F99B19",
"f  c #EEA30B",
"g  c #F7A90C",
"h  c #FEBD05",
"j  c #F6BE0C",
"k  c #FDBE0C",
"l  c #F8B40B",
"z  c #F7AC13",
"x  c #FAAE14",
"c  c #F5A711",
"v  c #E6BA1D",
"b  c #FCB512",
"n  c #F5BE14",
"m  c #FDBD13",
"M  c #FEB419",
"N  c #FEBC1B",
"B  c #EAA51A",
"V  c #DBB82A",
"C  c #E8AE26",
"Z  c #EABA2A",
"A  c #F3BC26",
"S  c #FCBF24",
"D  c #F4BC2A",
"F  c #FEB623",
"G  c #EAB938",
"H  c #F3BA34",
"J  c #FBBD34",
"K  c #F6C305",
"L  c #FCC106",
"P  c #F5C20D",
"I  c #FDC10C",
"U  c #EEC319",
"Y  c #F5C213",
"T  c #FCC112",
"R  c #F3C21B",
"E  c #FDC21A",
"W  c #F7C91D",
"Q  c #ECC42A",
"!  c #F2C323",
"~  c #F8C827",
"^  c #FDD32A",
"/  c #F9D42A",
"(  c #EDC336",
")  c #FAC93C",
"_  c #FDD333",
"`  c #FEDC36",
"'  c #FEDD3D",
"]  c #F8D738",
"[  c #FEE13C",
"{  c #82827D",
"}  c #DEBE4F",
"|  c #E2BB55",
" . c #EBB742",
".. c #D9BC6E",
"X. c #F2C747",
"o. c #FED641",
"O. c #FEDD43",
"+. c #FDDC4A",
"@. c #E9C75A",
"#. c #F6C85B",
"$. c #EBD65E",
"%. c #EED95A",
"&. c #F4D652",
"*. c #FCDC54",
"=. c #F4DB5A",
"-. c #F5D859",
";. c #FEE243",
":. c #FEE14A",
">. c #F7E249",
",. c #F8E157",
"<. c #DBC46C",
"1. c #DAC377",
"2. c #E8C867",
"3. c #EDD865",
"4. c #F5D966",
"5. c #E8CD76",
"6. c #EBD577",
"7. c #F5D87A",
"8. c #F2CD62",
"9. c #FDE367",
"0. c #EEE171",
"q. c #FFE27E",
"w. c #898884",
"e. c #98928B",
"r. c #908D88",
"t. c #A39F9C",
"y. c #A5A29D",
"u. c #A9A49E",
"i. c #B6AB99",
"p. c #ADA9A4",
"a. c #A8A7A3",
"s. c #B1ACA5",
"d. c #B2ADAA",
"f. c #B5B2AD",
"g. c #B8B4AF",
"h. c #B6B3B0",
"j. c #BAB6B3",
"k. c #BDB9B6",
"l. c #BEBAB9",
"z. c #C1BBB6",
"x. c #C2BDBC",
"c. c #CBBDB2",
"v. c #D6C697",
"b. c #EFDE84",
"n. c #EFD58B",
"m. c #F5DB88",
"M. c #F4DE9A",
"N. c #F3DE95",
"B. c #E2D19B",
"V. c #F4E285",
"C. c #F4E699",
"Z. c #C5C1BE",
"A. c #C9C3BE",
"S. c #CAC1B2",
"D. c #D5CBBC",
"F. c #D4CAA5",
"G. c #EAD9AC",
"H. c #F0DFA9",
"J. c #EBDDB6",
"K. c #F9E4A8",
"L. c #FFFFAB",
"P. c #FFF8A1",
"I. c #F4EABC",
"U. c #F9EBBF",
"Y. c #EBE3B4",
"T. c #C6C2C1",
"R. c #CAC5C3",
"E. c #CDCAC4",
"W. c #CFCBC9",
"Q. c #CDC7C9",
"!. c #D5CDC4",
"~. c #D2CDCA",
"^. c #D8D1C6",
"/. c #D6D2CD",
"(. c #DBD4CC",
"). c #DBD8CF",
"_. c #D4CED0",
"`. c #D6D2D1",
"'. c #DAD5D3",
"]. c #DED9D5",
"[. c #DEDBD8",
"{. c #DDD7DB",
"}. c #E0D7CE",
"|. c #E5DBC8",
" X c #E1DBD4",
".X c #E2DDD9",
"XX c #E9DED8",
"oX c #EBE5CD",
"OX c #EEE4C0",
"+X c #F6ECC6",
"@X c #FFFEC4",
"#X c #FEFDCC",
"$X c #F8F3CD",
"%X c #E4E2D5",
"&X c #E6E2DC",
"*X c #E9E5DE",
"=X c #EBE9DE",
"-X c #EEE6D7",
";X c #F1EEDD",
":X c #F5EED4",
">X c #FEFED3",
",X c #F5F3DC",
"<X c #FEFBDD",
"1X c #F6F5D7",
"2X c #EAE7E0",
"3X c #ECE9E2",
"4X c #EDEAE3",
"5X c #EDEAE2",
"6X c #EDEAE4",
"7X c #EFECE6",
"8X c #ECEAE3",
"9X c #EFEBE8",
"0X c #E6E4E1",
"qX c #F0EBE6",
"wX c #F1EDE6",
"eX c #F1EDE5",
"rX c #F2EEE9",
"tX c #F3F1E6",
"yX c #F5F1EB",
"uX c #F9F5EE",
"iX c #FAF8E2",
"pX c #FDFBF3",
"aX c #FFFFFD",
"sX c #FAF5F1",
/* pixels */
"c.*X'.. O w.uX%X&X&X.X&XR.g.Z.k.Z.A.Z.A.E.x.*X2X2X*X7XeXW.R.W.T.R.k.k.l.j.Z.%X].].%X&XuX{ * @ !./.!.",
"7XuXrXo % 4 pX5X5X&X*X&X=XE.l.x.Z.Z.z.x.x.T. XqX*X2XeX.Xx.Z.x.Z.k.x.k.j.'.rX6X6X8X=X*XpX8 : $ 6XtX}.",
"].qXaX% : 4 pX3X2X8X2X2X=XrXtX&XR.R.T.E.T.R.Q.&XyXeX Xx.T.x.x.x.Z.x.XXrXtX8X8X&X8X5X6XpX7 < - aX8X].",
"X o + 2 < = aX5X8X7X5X2X&X&X6X'.E.`.tXeX9X/.Z.x.j.j.k.x.~.rXeXeXR.k.W.7X8X8X8X8X8X8X7XpX; > > % @ + ",
"% * < * : % .XtX7X7X&X*X2X6X2X].x.rX8X8X8X4XE.x.x.T.x.R.4X5X2X5XqXf.].5X3X*X&X2X8X8XwX&X$ > ; - = % ",
"8 8 5 & + $ d.yX5X2X&X*X&X*X2X8X*X8X8X2X=X4X/.T.x.x.T./.eX5X7X8X3X*X3X*X&X3X3X3X*X8XyXp.& % $ 3 8 { ",
"yXpXsXpX&Xp.w.yX7X2X=X&X2X&X*X*X*X&X6X8X*X6X/.T.R.T.l.~.7X6X8X2X3X*X3X*X*X3X2X&X6X6XuXw.a.&XaXpXuXuX",
"*X8X8X8X6XyXtX'..X[.&X&X2X8X7X2X=X8X6X6X5X5XZ.T.T.T.T.k.2X7X&X8XqX3X&X2X*X3X6X.X`.`.'.uXrX7X*X*X=X8X",
").5X&X=X8X8X5X].].]..X{..X3X0X*X2X2X5X*X).Z.T.Z.x.R.x.x.x./.&X5X5X8X7X5X6X[.~._.`.].`.=X2X6X8X8X2X&X",
"(.eX2X*X2X8X2X[.]..X.X.X.X].5X2X&X7X2X5XE.Z.~.Z.T.T.Z.~.Z.R.7X*X2X2X2X2X].`.'.'.`.'.].8X&X8X&X&X=X].",
"(.*X7X8X8X2X8X&X]..X]..X.X]. X0X8X8X8X*X2X6XyXZ.T.T.x.rXtX6X2X5X8X8X2X].].].].~.].`.&X2X8X*X6X2X&X%X",
"}.8X7X8X2X6X8X8X]. X{..X.X]..X].8X8X8X8X&X8X6XW.T.T.~.eX8X7X5X8X5X5X[.'.'.`.'./.(.'.2X2X8X8X&X8X8X&X",
"s.eX5X5X5X8X4X6X.X]..X.X.X.X.X X.X6X=XI.0.%.%.=.%.4.b.,X7X5X6X8XqX.X'.{.`.'.`._./..X5X5X4X8X*X=X=XR.",
"u./.eX*X8X7X6X5X7X.X.XXX.X.X.X.XG.b.3.%.>.;.[ ' +.+.*.3.$X7X7X8X6X].].].].`./.'.'.5X*X*X8X*X&X&XZ.g.",
"g.j.tX5X8X8X7X5X7XqX]..X.XI.b.=.*.*.,.>.O.O.' O.:.O.O.,.$.P.4X4X.X{.].]././.W.`.2X8X8X*X&X8X5XtXf.k.",
"f.j.&X'..X5X8X5X7X3XeXoXM.3.+.o.' ' O.:.;.+.O.' O.' ' O.>.=.K.,X.X'.'.'._.'.'.2X6X*X8X&X*X/.R.`.f.g.",
"s.k.Z.R.R.&X7X7X6XiXC.$.-.*.] [ ;.O.' ;.O.>.' ' R Y n R ~ +.-.V.>X&X/.`.`.].2X=X8X8X8X*X&Xd.p.f.j.d.",
"k.k.x.`.yX*X7X7X,XV.&.+.O.O.] v ! ' ;.O.' ;.O.^ n P n Y U _ O.-.b.#X4X&X5X8X8X2X*X*X*X2X6XyXR.j.j.x.",
"x.x.x.rXqX3X7XqXV.&.+.+.+.' ` / ] [ ' ;.;.' O.O./ U W ~ _ O.O.:.=.6.iX6X5X5X7X2X&X=X5X8X2X8XrXk.l.'.",
"x.x.R.rX2X6X3X+X&.;.;.` ' [ [ [ [ ;.] ' ' O.+.+.' [ [ O.' O.O.' >.9.#X6X8X&X2X*X8X&X8X*X7X2XtXZ.l.E.",
"j.x.x.qX=X4X1X5.( ~ ^ ` [ [ O.O.[ ] O.+.+.+.*.+.;.' ' O.o.+.' :.+.9.L.L.#XiX*X4XZ.~.8X2X8X=XrXj.Z.Z.",
"R.l.x.~.yXtX#X2.Q Y m Y n U ~ ^ _ ] +.o.) J C C C ' +.O.O.' O.] O.*.%.7.6.C.=XtXZ.j.*XeX6X6XE.k.k.j.",
"7X[.T.x.R.`.#X2.v k m m Y E T T n m N r u s p B _ o.[ ' O.;.+.:.+.*.&.*.=.3.C.tXE.j.h.R.).E.x.z.'.&X",
"&XrX&Xx.T.R.#X8.! k m N b m I k k m N r c s y F N ~ R ^ _ ` ' ' +.+.;.O.' >.=.v.Z.Z.k.l.x.x.x.[.4X&X",
"&X5XtXT.Q.T.>X6.D k M f y M m h n E E m f r z E k I h P j Y Y Y W / ^ ` ` ' O.6.F.T.Z.x.T.T.k.eX=X*X",
"(.8XrXx.T.T.>X6.D k x u t M T I T P P T E N m m I L h k m N m E Y P P P Y E ~ X.5.v.E.T.R.R.l.5X*X].",
"XX2X Xx.Q.T.>X6.A m k l l m k k k L L L I T L L k I T k S x x N T I k k T Y n E ( } v.x.x.Z.l.&X5XXX",
"&X].x.l.R.`.>X7.A k k h k T m T I L L L L L K I I m m S y y y i m T m k T I k k K ( 1./.'.l.l.k.).*X",
"d.x.Z.!.eX3X<Xm.D k k I I T m b m k L L L I I K T m N x s s d y z m k k k T T I I ! 5.;X4XwXE.k.d.k.",
"f.x.x.rX7X2XiXm.D h k P I P b e l k I L I k I I k k N x s s d s x m m k T T I P n Z <.,X8X8XwXj.f.j.",
"A.l.T.yX2XqXiXm.A h P P P T m l m I I k T T I I T h k E u y s y m k I K P P I T D #.U.=X8X*X8XZ.h.y.",
"/.l.x.rX2X5XiXM.G S ! ! Y I k m m T I I k m k I P I I k N c c M E I L L Y Y I E G P.,X=X&X&X8Xf.h.y.",
"j.x.R.~.9X4X8XU.<.| 2.@.@.&.X.X.~ N k k k k j I K K n T E E N m I L L K P T k E X.L.2X2X2X9XT.f.f.y.",
"f.k.T.R.T.2X4X4X1X1X+XI.H.B.F.D.!.(.-XJ.n.8.) E Y T T I k k k L k I L L E N h E Z q.>X2X&Xh.j.p.y.e.",
"g.l.&X'.0X9X2X2X4X8X4X`.`.].].'./.`.*X*X%XG.5.@.H b k k h L I k m h I E x z m k W V <.#X4X`.Z./.y.e.",
"f.x.tX9X9X9X9X2X4X3X[.'.'.'.'.'.`..X8X8X5X5X-X+XH.7.X.Z Z A D ! S S ~ N p t b k j Q @.@X8X6X*XtXd.d.",
"f.`.8X7X6X4X6X2XqX.X].'.'.].].].~.2X5X2X*X=X5X4X%X&XqX=X:XU.N.2.|  .G H p p N k m A @.@X7X&X&X&XT.y.",
"s.yX8X8X9X9X9X6X.X'..X].].].[.`.].5X2X*X*X=X8X4Xz.k.6XqX*X=X5X=X=X%XY.N.7.#. .H H G ..1X=X.X*X*X5Xd.",
").eX5X6X9X9X9X6X'.].].[.].].].].5X3X=X=X8X*X4XE.j.x.R.qX5X*X8X*X*X*X'.(..X.X%XoXI.H.OX3X&X8X=X X=X X",
"}.6X8X6X9X6X9X2X_..X].].].].`.8X*X8X8X8X6X6XtXk.x.z.j.yXeXqX5X8X*X=X*X'.]..X.X.X.X'..X8X*X8X2XXX X].",
").4X4X2X6X9X9X0X.X].{.].].].0X&X8X*X2X4XZ.k.R.k.l.T.T.E.Z.R.6X8X2X=X&X&X`..X[.[.'.'. X2X&X2X*X&X.X].",
"].9X4X4X9X9X9X[..X{.[.'..XqX&X2X8X*X&X4X`.j.j.k.x.k.l.Z.Z.`.=X8X&X*X*X&X5X.X`.].(./._.5XqX5X*X*XXXD.",
"].4X2X9X9XyXyX{..X.X0X5XqX&X3X&X8X8X8X*X6X&Xk.k.Z.Z.Z.l.6X6X6X=X=X*X&X=X&X*X8X].'.'.~.uXtX7X&X2X.X^.",
"eXuXaXaX0Xl.t.sXqXrX9X&X*X*X*X*X8X&X8X&X=X8XE.k.x.x.x.~.wX5X6X6X7X*X8X&X*X*X&X5X3X*XrX{ a.&XpXpXyX*X",
"5 6 8 4 7 7 l.yX6X6X4X8X&X&X&X5X2X2X&X8X8X9X/.l.l.x.T./.6X4X8X8X8X&XqX8X3X&X*X*X8X&X7Xy.@ @ & < 5 8 ",
"0 + 4 6 q 9 &XrX6X6X8X2X5X3X5X`.j.tX8X8X6XtXZ.l.x.l.l.T.tX6X5X6XyXk.).5X*X*X2X*X&X&X8X X+ & + + o # ",
"+ X % 5 9 5 sX2X9X6X&X*X8X=X6X].k.l.wX6XrX/.l.l.l.k.x.l.R.tXtXrXE.k.~.8X&X2X*X*X2X8X7XaX@ $ & X X . ",
" X&XaX* < q sX2X2X6X2X&X&X8X6X&XT.l.g.Z.k.k.l.].6XtX].l.l.k.T.k.k.k.].eX5X*X*X0X&X&X2XpX> $ X aX=XA.",
".X4X8X# * 0 6X*X*X*X&X&X5X/.x.x.l.T.x.k.Z.l.[.=X*X7XrX[.x.x.Z.Z.x.l.d.h.~.qX*X&X&X2X0XsX, O .  X8XD.",
"}.*X}., 4 r.XX]. X X*X&Xa.d.d.d.h.T.A.k.T.x.2X^.^.].&X*Xp.d.s.s.p.p.s.p.t.x.XX}.S.D.(.eX1   . /.*Xi."
};
