/* XPM */
static char *_8d0b037f1484a5eed4b42089c6d09ceYOBKRpACoXcrDIbO[] = {
/* columns rows colors chars-per-pixel */
"50 50 255 2 ",
"   c #3C0200",
".  c #370601",
"X  c #430200",
"o  c #4B0200",
"O  c #430A01",
"+  c #4B0900",
"@  c #560801",
"#  c #4E1409",
"$  c #57170A",
"%  c #5B1A13",
"&  c #4B1612",
"*  c #690300",
"=  c #7B0B00",
"-  c #661907",
";  c #761801",
":  c #651D15",
">  c #751E17",
",  c #592315",
"<  c #5D280D",
"1  c #69260A",
"2  c #772808",
"3  c #672819",
"4  c #732419",
"5  c #742C1E",
"6  c #7A2718",
"7  c #753318",
"8  c #77360E",
"9  c #592C24",
"0  c #542E27",
"q  c #772C26",
"w  c #68352A",
"e  c #7A3424",
"r  c #7A3727",
"t  c #673B35",
"y  c #773B34",
"u  c #682F24",
"i  c #784538",
"p  c #714230",
"a  c #774944",
"s  c #7C534A",
"d  c #891403",
"f  c #941901",
"g  c #991A04",
"h  c #850E01",
"j  c #A61C02",
"k  c #882709",
"l  c #982302",
"z  c #89370B",
"x  c #892C18",
"c  c #86311D",
"v  c #993719",
"b  c #97330D",
"n  c #A92409",
"m  c #B8280B",
"M  c #B92C11",
"N  c #A73517",
"B  c #B83717",
"V  c #AA2A11",
"C  c #883728",
"Z  c #9B3B2B",
"A  c #963726",
"S  c #883C35",
"D  c #983E33",
"F  c #862D24",
"G  c #A83A27",
"H  c #B83C25",
"J  c #A83E30",
"K  c #C63817",
"L  c #D43A1A",
"P  c #C62D10",
"I  c #C03F2A",
"U  c #B4481A",
"Y  c #87462B",
"T  c #994729",
"R  c #874938",
"E  c #994936",
"W  c #8A5339",
"Q  c #94543A",
"!  c #9B563A",
"~  c #9D5928",
"^  c #A64729",
"/  c #B74529",
"(  c #A65228",
")  c #B95727",
"_  c #A84835",
"`  c #B84A35",
"'  c #A65739",
"]  c #B85739",
"[  c #B16138",
"{  c #8E552C",
"}  c #D5411E",
"|  c #CF401E",
" . c #C94529",
".. c #DB4524",
"X. c #D64929",
"o. c #C84C33",
"O. c #D34E33",
"+. c #C95538",
"@. c #D85538",
"#. c #C45127",
"$. c #E54829",
"%. c #E7522E",
"&. c #EC5D3D",
"*. c #E55738",
"=. c #F45A38",
"-. c #EE4F31",
";. c #CE643B",
":. c #EB633B",
">. c #F1683C",
",. c #E2421E",
"<. c #884E43",
"1. c #8A5548",
"2. c #985845",
"3. c #8C5D54",
"4. c #885855",
"5. c #94534E",
"6. c #A45C45",
"7. c #B75943",
"8. c #A55C57",
"9. c #9E6345",
"0. c #986458",
"q. c #8A6257",
"w. c #A96446",
"e. c #B96545",
"r. c #A76959",
"t. c #B66852",
"y. c #B67558",
"u. c #AE7652",
"i. c #A76A64",
"p. c #AD7566",
"a. c #B57969",
"s. c #A77476",
"d. c #977769",
"f. c #C85A45",
"g. c #D75B42",
"h. c #E85D42",
"j. c #C76848",
"k. c #D86647",
"l. c #D87847",
"z. c #D96752",
"x. c #CB7657",
"c. c #D67857",
"v. c #C96E50",
"b. c #EB6647",
"n. c #F36442",
"m. c #F66C48",
"M. c #E87A4C",
"N. c #F9764C",
"B. c #E76D54",
"V. c #E9775B",
"C. c #FC7D5B",
"Z. c #F87855",
"A. c #F16E50",
"S. c #CE7D6B",
"D. c #EF7A62",
"F. c #F57C64",
"G. c #B5867A",
"H. c #B68051",
"J. c #D38A56",
"K. c #E88659",
"L. c #FB835C",
"P. c #F8875A",
"I. c #F9945B",
"U. c #ED834E",
"Y. c #C6866A",
"T. c #D88769",
"R. c #C88975",
"E. c #D38E78",
"W. c #D89578",
"Q. c #D4936A",
"!. c #E68868",
"~. c #F88867",
"^. c #EA9967",
"/. c #FA9765",
"(. c #FB8C72",
"). c #EA9976",
"_. c #FD9A7C",
"`. c #F79877",
"'. c #E5A26A",
"]. c #FAA468",
"[. c #E8A778",
"{. c #FEA37C",
"}. c #F8A778",
"|. c #F8B679",
" X c #E9B57B",
".X c #D3A071",
"XX c #F7C67B",
"oX c #B49294",
"OX c #AA95A8",
"+X c #C79685",
"@X c #D99986",
"#X c #CE928D",
"$X c #E79B87",
"%X c #FA9C83",
"&X c #E09B96",
"*X c #DDA388",
"=X c #D3AD99",
"-X c #E9A586",
";X c #FEA582",
":X c #F8A888",
">X c #ECB688",
",X c #FAB788",
"<X c #E9A996",
"1X c #F8AC94",
"2X c #EABB94",
"3X c #FDB393",
"4X c #FEBC9B",
"5X c #F9B896",
"6X c #D1B5AE",
"7X c #E8B6A6",
"8X c #FBBEA2",
"9X c #E5BEB5",
"0X c #F2B5AE",
"qX c #FDC58D",
"wX c #FDCC8C",
"eX c #F7C786",
"rX c #F9D38D",
"tX c #FDC494",
"yX c #FDCC92",
"uX c #FDC39D",
"iX c #F8CA97",
"pX c #FCD798",
"aX c #ECCA93",
"sX c #D7C6AD",
"dX c #FFC4A4",
"fX c #FECBAC",
"gX c #F8C8A6",
"hX c #FED6A7",
"jX c #EBC5BC",
"kX c #FECDB2",
"lX c #F7C9B9",
"zX c #FCD6B8",
"xX c #E8D6B2",
"cX c #FEE6A8",
"vX c #FEE8B8",
"bX c #FFF4BC",
"nX c #FFF4AC",
"mX c #FFE19E",
"MX c #D1B7CD",
"NX c #D6C2C3",
"BX c #FED8C6",
"VX c #F8D2CC",
"CX c #FFE8C9",
"ZX c #FFF3C3",
"AX c #FFF4CC",
"SX c #FCF9C9",
"DX c #FEE8D7",
"FX c #FEF3D4",
"GX c #FFF7DA",
"HX c #FEFAE8",
"JX c #FFF6F3",
"KX c #FFF9F4",
"LX c #FDFCFC",
"PX c #FFF7FC",
"IX c #FAE9E8",
/* pixels */
"a t a t t t i 9 r.G.=XNXIXLXLXLXLXLXLXLXPXLXPXPXVX6Xd.q.3.1.w & . &XVX&XoX5.q % & & & & , u t t t t ",
"i a a t t 0 p 9 G.G.oXsXDXKXKXLXLXKXKXLXJXPXPXJXIXDXDX6X=XG.3.a 0 IX0X&X#X5.q S q > S 8.a.a.G.4.a a ",
"4.s s t & 0 p & p.0.d.oX6XjXIXHXJXHXKXKXJXJXJXJXKXJXDX6X=Xs.4.t i =XlX7X#X5.q S F q S <.<.<.4.q.s s ",
"t p s +XVXGXDXzXfXzXCXBX7XlXjX9XjX9X9X9X9XVX9X9XsXNXjXjXjX9X0XjX0XVXBXBXVX0X#XS.F E 5.5.<.5.1.3.4.4.",
"a G.CXQ u $ 1 1 1 8 7 u.2.X . O . . O O + # , u % $ # # % q q q q C r q w y 5.8.&X8.5.3.5.3.3.4.q.4.",
"a 7X< < 7 r Y T { { 7 r C 5 X   O X X o $ 3 r e : % $ : 4 r S E > > : @ X   X X @ 5.r.5.r.5.0.3.0.4.",
"i G.p p Q R <X.Xi i w , e e $ $ $ % % $ 3 5 S e : q : > q D 2.F 6 e % #     X o - 2.p.p.i.i.8.0.0.4.",
"W 1.H.< W 1.7X=Xq.s t , % i 3 < , 3 3 3 6 7 E r q 4 6 F A _ _ A 6 F 7 & O . # o q S r.i.a.p.p.p.i.s.",
"s i 9.{ 1 p hXsX0.1.p 9 , R y , 3 q 4 4 F F _ C F A F F G 7.f.Z A S q 3 & & @ @ r 8.p.p.p.p.p.p.a.i.",
"p i W W Q < 9.*Xu.<.w 3 1 ! 7 3 4 4 > 6 c A D J Z A A x Z J 7.J Z D F q % : % : 4 S.2.a.p.G.p.a.a.i.",
"r i i Q Q 9.W u.u.J.G.[ v ' c 1 - 6 6 x c A Z Z Z Z Z A Z ` J J J 7.D S q : : % e a.<.a.p.p.Y.a.a.r.",
"1.1.R W W p H.H.Q.Q.u.{ z ] T T ' 2 2 ; x x J A A G J A A ` ` J J 7.8.S q 3 3 : C a.w.t.a.a.a.a.G.i.",
"<.1.R R <.w *X>Xu.[ ~ z z ^ #.k z x.T 2 x l G N G J ` G G ` f.H 7.f.7.D F > q q S r.a.Q a.S.G.R.Y.i.",
"W <.W <.W W SXY.J.;.^.XX( b b z z z e.b x x G G G H H H N o.g.f.z.z.f.7.D F q q R S.Y.Q @X+X@XE.R.a.",
"W R 1.W i R.aX.X[ ;.^.) ) ) U U ) ^.( ;.x V H H H o.H  .H f.o.g.D.z.z.f._ A F F 5.E.Y.Q +X@X*X*X#Xa.",
"r C e r p ! hX^.J.U.) z U ) #.#.U.c.K.k.d N H H I @. .I X.O.O.g.~.D.z.z.` Z S F 2.@XE.Y.1.2X&X*X@XG.",
"Y e r 7 C Y c.;.l.I.I.l.U.;.:.@.U / / ;.V V #.I  .@.O. .| O.O.g.D.F.D.z.o.G D C 5.@X@X@X3 *XE.W.R.R.",
"R ! ! W ! E c.U `.J.K.U.U * b Z.k.l #./ N N o.H  .@.O.X.O.O.O.g.F.(.D.B.H G Z C 5.$X$X$X2.u.*XW.R.R.",
"Q 6.9.Q 2.! [.).[.[.T.;.z * = = #.k.B l | B O. . .@.h.h.@. .o.B.D.(.D.z.f.` D S 5.&X$X$XY.3 -XW.R.E.",
"! w.' 6.6.Q 3X5X2X4X:Xc.Z d > = = h f b U B O.#.o.h.h.h.&.X.O.B.D.F.~.D.g.J _ S 5.1X%X$X-X7 @X@XR.E.",
"' w.w.w.2.2.zXkXfXfX1X!.` = = d d f n V #.K @.X. .-.h.=.h.@.*.B.F.(.~.D.f./ _ C _ 1X1X%X1X8.w.-XE.W.",
"! w.t.t.w.9.BXzXlXfX1XT.` f d d f g n U  .X.@.@.$.h.h.h.h.=.h.A.(.(.!.F.@.+.( C 6.1X1X1X1X-X1 <X).W.",
"! ! 2.6.2.2.CXBXzXkX4X!.` f h h f n V B X.X.*.%.h.n.n.n.n.n.A.D._.(.(.~.g.o.` T 2.8X4X3X5X1Xp Q.$X$X",
"! ' E ' ! 1.CXlXzXkX8X`.o.f f f j n M  .X.| | X.*.n.n.m.h.n.A.(.%X`.(.D.g.+.` Z 7.8X1X8X8X8XE.Q 1X:X",
"e.] v.[ w.9.GXBXlXkX4X`.) f d f j V B | X.} X.%.*.n.n.m.n.n.m.(.%X_._.(.h.O.` A t.4X3X5X8X8X2X7 -X$X",
"j.v.x.[ [ Q FXjXlX8X3X!.) l d g n V K | X.} ..X.*.:.>.m.N.m.A.(.%X_._.(.B.@.+.J ] 4X3XuXfXgX8X9.J.:X",
"j.x.v.j.w.' DXzXkX8X3X!.+.l f g V M K  .....X.%.n.m.m.N.N.b.A.F.`._._._.B.h.f.J e.3X3X3X4X4XdX[.Q 4X",
"x.c.x.[ [ 2.BXlXfX8X:X`.+.f f j V M K L } L ..%.n.N.C.Z.N.b.A.(._._.{.{.Z.h.g.H f.:X;X:X3X5X5X4X! -X",
"c.x.v.' ! Q zXzX8X1X).~.+.g j n M B K L L L ..*.m.Z.N.L.C.Z.Z.(.;X;X;X{.~.b.g. .j._._.}.:X3X:X,XW.Q.",
"j.e.] ' ' W zXgX1X3X`.`.+.g j n M K K L L ..$.h.Z.Z.Z.Z.C.C.L.`.{.}.,X}.C.b.h.I +.!.(.).).`.`.).).! ",
"c.c.k.j.] ! zXgX2X3X_.~. .j j j M K K K L ..$.n.C.C.Z.Z.Z.C.~.`.{.,X,X}.L.m.h. .o.V.K.K.K.T.D.c.W.Q ",
"!.c.v.] ( ' zXuX:X:X~.A.B j j j M B P L ..$.*.m.Z.C.C.L.~.~.~.{.,XyXrX,X~.A.h.X.` j.[ ] j.e.f.j.kX).",
"!.x.T._.;X$XfX5X`.!.V.b. .n j m m P L L $.-.=.N.C.C.~.~.L.~.{.3XtXhXpXqX/.Z.m.X.B ^ ^ ^ T T ^ ` T ] ",
"a.CXzXe.( ( dX}.`.~.A.A.*.M j m P P ....$.-.=.Z.C.C.C.L.L./.].,XtXiXhXyX}.M.M.@.H T A E T T A ] ^ ] ",
"+XGXc.v b z dX-X~.Z.Z.Z.$.P j m P L ,.$.-.>.N.L.L.L.L.L./.~.^.,XtXpXcXrX].U.Z.@./ _ ] 6._ _ ( ' ^ ^ ",
"=XCXT k z ( fX`.K.P.Z.A.*.P m P P ,.,.-.&.m.Z.C.P.~.I./././.'.|.yXpXnXpX|./.P.;.` v.v.v.x.v.x.v.x.v.",
"w.x.T.dX3X,XpX[.].I.N.P.b.M P P L ,.-.-.=.N.Z.L.I./.].].].I.|.wXpXpXnXmX XI.P.:.;._.).;X{.{._.}.`.`.",
"( z @ ; 2 T hX|.I.I.P.P.&.P P P } -.=.=.>.N.P./.I.].].].].|.,XyXhXcXnXrXXX].I.m.M.;X:X}.).{.-X[.[.).",
"( v.2 ; 2 Y hX,X^.I.U.N.>.,.L ,.,.=.=.>.m.N.I./.].|.|.|.XXeX,XqXrXpXnXeX|./.I.M.V.,XgX5X4XuXuXdXuXtX",
"dX,Xt.e.J.Q.vXyX].U.U.I.N.=.-.%.>.N.N.m.N.I.].|.|.eX|.qXeXrXqXwXrXpXnXrX|.].P.N.x.>X>X8 8 Y Y.4XfXfX",
"vXSXFXHXFXFXAXaX}.I.U.}.}./.N.n.N.I.U.U.I.].|.qXeXwXwXeXrXrXrXpXrXaXbXcX'.I.:.U.5XZX.XY ~ y.Q.W.2X5X",
"2XhXxXxXFXHXFXvX X^.^.{.|.`.c.~.'.,X].].].|.wXyXyXrXwXXXeXrXrXrXmXmXSXvXXXJ.l.}.SXgXH.J.^.Q.y.w.{ c ",
"^.>XaXxXGXHXHXGXeX'.'.,XuX>XqX2X2XZXeX}.'. XeXrXeXXXXXXXXXrXaXvXSXSXHXFX XJ.'.eXqX[.[.[.).^.! 8 - # ",
"] |.SXbXxXsXsXFXcXiX}.hXCXaXvXAXCXAXzXaXaXbXcXpXaXeXXXXXXXXXbXGXGXHXKXHXcXwXvXhXaX>X,XqX4X>XdXuX-XT.",
"hXAXiXhXZXhX2X2X'.eXvXZXAXvXgXGXJXHXHXsXGXFXZXbXnXmXyXcXbXvXHXLXIXLXMXMXsXzXSXvXvXcXeXtXtX>XtXiXpXfX",
"w.H.[.>X>X>XfXiX,X).[.W.E.E.#XVXIXVXIXDXBXBXzXzXpX>X[.>X-X=XsXNXOXMXOXOXDXFXAXZXcXpXrXpXiXpXpXpXpXhX",
"O O o @ - @ - - 4 c x F D F D 8.i.s.s.s.r.t.S.c.c.S.T.S.$X0XlXlXDXs.3.DXzXfXgXuXaXuXtXuXuX4X3X,X>X-X",
"# + X X o o o @ o o @ @ @ @ @ o o X X o * * * * * * * * @ X O   $ @ + o + + + @ + @ @ - 2 8 2 8 6 - ",
"q 3 3 5 5 5 e C C Y E A T C C C c T D C v ^ ^ U / ^ v v ^ ( ' [ ' [ [ ' ' ^ ( ^ A v z ; 2 ; ; - - - ",
"5 5 5 5 5 5 C C C T E ' _ ' ! ' e.v.v.z.!._.{.`.,X{.{.{.|.,X4XuX5X4X3X3X3X;X;X;X_._.).).!.S.c.x.t.7."
};
