/* XPM */
static char *_7f01d99597748e48eebb95f2e314f59bpVQXpxYtIfgmyjl[] = {
/* columns rows colors chars-per-pixel */
"50 50 242 2 ",
"   c #050300",
".  c #0A0500",
"X  c #070900",
"o  c #0C0900",
"O  c #120D00",
"+  c #160900",
"@  c #151200",
"#  c #1A1500",
"$  c #1D1A01",
"%  c #231D00",
"&  c #251900",
"*  c #231C12",
"=  c #242200",
"-  c #2A2401",
";  c #2B2709",
":  c #332502",
">  c #332B02",
",  c #352A09",
"<  c #3B3403",
"1  c #393508",
"2  c #2C2A13",
"3  c #2A2616",
"4  c #342C13",
"5  c #362B16",
"6  c #3D3314",
"7  c #383618",
"8  c #3D3625",
"9  c #38342D",
"0  c #1E200A",
"q  c #433B01",
"w  c #433B0B",
"e  c #453806",
"r  c #453B1B",
"t  c #453816",
"y  c #453A26",
"u  c #4A450A",
"i  c #514B0A",
"p  c #4C421D",
"a  c #4B4614",
"s  c #544A17",
"d  c #5A5519",
"f  c #565306",
"g  c #635A1B",
"h  c #696617",
"j  c #444125",
"k  c #4B4628",
"l  c #554A26",
"z  c #5B5428",
"x  c #4B4935",
"c  c #524B33",
"v  c #554937",
"b  c #5B5234",
"n  c #595638",
"m  c #635A28",
"M  c #655A39",
"N  c #646122",
"B  c #6A6329",
"V  c #736D2C",
"C  c #686438",
"Z  c #726A38",
"A  c #797639",
"S  c #7C7329",
"D  c #5A5249",
"F  c #554E47",
"G  c #655A48",
"H  c #645B52",
"J  c #635954",
"K  c #6A664A",
"L  c #736A4A",
"P  c #7B7546",
"I  c #6B6259",
"U  c #756A5A",
"Y  c #787457",
"T  c #746A63",
"R  c #756E66",
"E  c #576065",
"W  c #837B3A",
"Q  c #857B48",
"!  c #837A56",
"~  c #857A65",
"^  c #847B73",
"/  c #8B843D",
"(  c #958C39",
")  c #8C8746",
"_  c #938C47",
"`  c #96934E",
"'  c #89855A",
"]  c #958B5A",
"[  c #999558",
"{  c #A69B57",
"}  c #A49D4F",
"|  c #ABA55B",
" . c #B9AD59",
".. c #898565",
"X. c #938D6B",
"o. c #938964",
"O. c #9A9668",
"+. c #888375",
"@. c #958977",
"#. c #9C9775",
"$. c #8E9061",
"%. c #A59B66",
"&. c #A59B76",
"*. c #ABA36B",
"=. c #A9A466",
"-. c #B3AB6B",
";. c #B7AC69",
":. c #AAA578",
">. c #B6AA79",
",. c #BDB375",
"<. c #BBB678",
"1. c #B9B168",
"2. c #9EA07B",
"3. c #C4BD6B",
"4. c #C4B864",
"5. c #C4BB77",
"6. c #C2B654",
"7. c #CCC573",
"8. c #CCC47B",
"9. c #CBC576",
"0. c #D3CC7C",
"q. c #D5CA76",
"w. c #DCD478",
"e. c #CFC76B",
"r. c #E2DA78",
"t. c #EADD6D",
"y. c #ECE47C",
"u. c #EFE97C",
"i. c #E9E175",
"p. c #F2E97D",
"a. c #7D8D9B",
"s. c #7F95AA",
"d. c #8C8985",
"f. c #948A84",
"g. c #9E9488",
"h. c #9C9791",
"j. c #A39B85",
"k. c #A89990",
"l. c #ACA584",
"z. c #B7A987",
"x. c #BCB38C",
"c. c #BAB687",
"v. c #AEA796",
"b. c #B7AB9B",
"n. c #BCB792",
"m. c #B9ADA3",
"M. c #B8B2A5",
"N. c #BDBBB1",
"B. c #A1A2A4",
"V. c #C5BA86",
"C. c #C6BC94",
"Z. c #C4B9A9",
"A. c #C8B8B2",
"S. c #CEC584",
"D. c #C9C389",
"F. c #D5CA88",
"G. c #DBD383",
"H. c #DDD48C",
"J. c #D8D487",
"K. c #CAC595",
"L. c #CBC799",
"P. c #D3CD9C",
"I. c #D5CB96",
"U. c #DCD599",
"Y. c #E3DC84",
"T. c #E4DB8B",
"R. c #E6DA8A",
"E. c #E4DB94",
"W. c #E3D79B",
"Q. c #E6DD96",
"!. c #ECE484",
"~. c #ECE48B",
"^. c #EBE589",
"/. c #F2EC83",
"(. c #F4EC8A",
"). c #F3E889",
"_. c #F6F18B",
"`. c #FAF38E",
"'. c #EDE592",
"]. c #ECE59B",
"[. c #EAE697",
"{. c #F3EC94",
"}. c #F1E69C",
"|. c #F2EB9A",
" X c #F9EC9A",
".X c #F6F195",
"XX c #FBF494",
"oX c #F4F19C",
"OX c #FBF49B",
"+X c #FEFA9B",
"@X c #FFFA95",
"#X c #CDC7A7",
"$X c #D4CCA2",
"%X c #DAD6A6",
"&X c #CCC4B5",
"*X c #CAC3BA",
"=X c #D2C8BA",
"-X c #DAD3BB",
";X c #E5DCA8",
":X c #E4DCB5",
">X c #E5E3A3",
",X c #EBE5AB",
"<X c #E9E5A7",
"1X c #F4ECA4",
"2X c #F5EAA7",
"3X c #FBF3A4",
"4X c #FEFAA4",
"5X c #FBF5AD",
"6X c #F9F5AB",
"7X c #E6E3B2",
"8X c #ECE9B7",
"9X c #F3EEB8",
"0X c #FAF6B5",
"qX c #FDFAB5",
"wX c #F6F4BB",
"eX c #FBF5BC",
"rX c #FDFABC",
"tX c #F6F4B6",
"yX c #EFF0AA",
"uX c #D7CDC3",
"iX c #DBD2C6",
"pX c #DCD5CB",
"aX c #D8D7C8",
"sX c #DBDBD3",
"dX c #D8D8D3",
"fX c #CDCBC7",
"gX c #E2D5CB",
"hX c #E3DACD",
"jX c #E5D7C8",
"kX c #E4DCD3",
"lX c #E4DAD6",
"zX c #E0CFC5",
"xX c #F6F3C3",
"cX c #FAF5C4",
"vX c #FCFAC4",
"bX c #FAF6CA",
"nX c #FDFBCA",
"mX c #F6F2CC",
"MX c #E8E2D7",
"NX c #F4E8DC",
"BX c #EEEBC2",
"VX c #FBEEE6",
/* pixels */
"aXdXdXlXdXaXdXaXgXdXlXsXdXpXlXlXlXsXdXdXdXpXdXdXsXdXdXsXsXsXsXMXpXiXhXgXpXfXfXf.f.^ U v B.fXMXaXaXaX",
"sXsXlXuX=X=XiXaXuX&XpXuXhXaX=XuX*X&XuXA.uX=XuXN.N.*X*Xv.M.M.M.b.Z.Z.b.C.j.U Y ! ! @.@.T J 9 F a.fXdX",
"v.~ I M v l p k t t 6 1 < 1 1 , t 5 , y , t y y 8 8 7 y r r , > , w s s a s s s s s s y H U I R R ^ ",
"k.H l o.&.' ] 5.V.,.V.5.F.F.,.>.%.V.V.x.C.C.U @.K X.z.&.$XP.V.F.F.;X2XQ.;X2X}.}.Q.2X;XI.F 8 VXgXMXkX",
"A.y t >.%XQ { R.T.1XF.1.F.]..XG.'.R.-.%.z.>.! l Y :.>.>.C.V.}.~.[.5.<.F.D.-.~.'.H.{ -.$XD * A.kXzXzX",
"NXv l 5.W.e : 0.,.% < J.P # h OXG.& % ;X%.O > C.C X N rX& o ( r./ @ - >Xd o f 5X& + / Z y 5 M.hXgX-X",
"=Xv z 9Xz.  . c.$.. o vX, X u F.]   o %XU   . cX2 X q xX.   m [.P   o rXp o - nX& + m tXX.& v.pX=X&X",
"NXU d ;X:..   L.D   @ bX2   s U.l.o . 7XY   . :Xj X q cX@ o Z U.O.@ X wXn   = 8Xy . s W.:.2 k.hXZ.uX",
"k.Q t C.... . 9XK   # xX3   p wX:.o . L.~   . nXx X = xX0   N qXO.. o %XY X o bXc + w D.o.5 @.gXiXiX",
"NXb g 5...O . 9Xb   $ xX3   l *.:.. . L.!   o xXc   = nX3 X i 6X*.+   $X' . o xXG   < ;XV.t @.MXA.iX",
"gX5 W }.o.o o 7Xc X - bX3   i I.#.  . %X..o . BXn X = xX4   a >Xc.    #XX.. + :XY + & 9X:X: ~ jXiXiX",
"lXt W }.Y o . 7Xc X = cX3 X z >X&.    :XX.  . bXK X $ wX8 o > <XC..   n.j.    P...  # ,XW.t G NXgXgX",
"A.y m ;XL . o vXk X > vX0   d tX:.X   n.X.X o xXK   X bXx o > 6XI.  . #.Z.. X L.&.. # >.W.z y MXZ.k.",
"m.5 Q %.I + o xX7 X 1 xX0 X d qX:.  X I.X.o   bXY   $ 9Xn   $ qX;X+   #.#X@ o :.x.  . L.V.Z v jX=X:X",
"A.5 { 2XM + . nX2 X 4 :X0   d >X' . o ;X'   o 7XX.; @ xXC o @ ,XW.. o ..;XO o ' P.. O :.2XZ y gXzXgX",
"A.5 m 2Xs   < P.8 X n k 7 X _ ].<.. . 6XD.o > ].=.X > qX:.o i 0.].q @ -.5Xu % ;.<Xq > S.2Xm v uXgXzX",
"m.t ! 5.G.G.H.8.Q.H.].A 5.<X|.G.|.OX4X7.T.+X@Xu.!.@X.Xq.^..X@Xu.u.@X~.J.G.'.OXw.w./..X~.V.M v @.jXlX",
"h.* Q =.~.|.e.T.W.E.T.0.E.J.'.Y.).4XOXq.|.~._.u./.^.{.q.~.!./.i.u.!.5.J.5.Y.0.w.r.w.1.-.%.Z U j.jXA.",
"f.& 0.'.Z X W 2Xb . / qX1 X [ 5XV.O . qX%.. # <XD.. . qX*.. o ].1X% o P rX# . m yX= o L 6X| n b.Z.m.",
"m.+ {.oXO   < nX    g qX    d H.O.  o ,X' . . wXc.  . 7X'     K.tX% X x cX: O y xX= o j oX9.l R A.zX",
"^ , G.].#   g rX    Z 9X    A 0X>.O . ,XO.# . xXc.. . :Xl..   ;XqXq   8 vXq X 8 vX< o 7 4X7.t b.Z.zX",
"^ , 5.2X.   V tX    B nX    P qXl.. . 7X&.  . vXV.  . #Xl.  . D.5Xu O 3 U.z X 2 eXu o ; 0.'., v.lXzX",
"R y 0.F.o   P wX    A <X  X / 5X%.  . <X&.  . wXD.  o %X:.o . V.5Xs O $ rXs X $ rXd O $ |.~.k j.gXuX",
"I r 2XE.O   C tX    ) wX  X ) 6XO.. . 7XO.. . >XP.X   $Xc.@   *.3Xm O O 0Xh @ @ yXV X O [.XXM G hXhX",
"y b Q.R.+   Q ;XX   ` >XX X / 4XO.    8X#.o X 7XL.O   K.D.X   %.6XV . o qX/ =   >X_   . E. XM ! pXpX",
"G r 5.5.+   ` U.    ` >X  o ) 4X[ X X :Xl.  X 8XP.X   z.K.  o O.5XW .   F.)     <X[   + 5.H.! G MXiX",
"v t 5.5.O   =.U.    [ ,X    ) 6XO.. X %Xl..   ,X7X  . l.%X+ o $.5X/ O   W.=..   J.<.  + 4.R.! G iXgX",
"b Z }.5..   -.S.    =.U.    ` 6X$.  , %X&.o   >X%X  o :.:X  + ' 3X` .   -.<.@   9.9.. + { 2X%.b Z.gX",
"k P 3X} o . %.S..   | H.    A qX' o = %X%.. . I.9X    O.7X# # m 4X| o   8.5.    _ yX  o W  X-.M b.A.",
"k P ~.| .   H.S.. . G.1X  X 9.{.<.@ o tXZ.. . <XyX= o ,.0X# + ` .X0.    J.|.# . 3.oX$ X ( ).%.L v Z.",
"y r >.}.T.~./.!.^.OX3.G.OX~././._..XXX[.&.z.vX9.~.OX4Xe.r.+XXX(.p./.+X+XY.^.+XXX/.y.@XOXy.q.] G y jX",
"y t ,.T.3XoXy.y.@XoX .~.+X+X_./._.@X@XH.o.z.I.h / 3X3Xr.).).XX`.u.u.XX@X4.!.XX@X_.y.`.XX).4.*.y ~ iX",
"w Q }.5.1 z J.H.w w 0.3Xa < H.Q.S.- u qXL.t 6 C Y l % D.5XS O [ r.{.q O e.4Xz & { E.) $ W 1XF.s x pX",
": V.'.g     $.Q     S.8..   ) vXC o . U.>.. o @.&X. . C rX. . = 3XH.. O h qXo   % vX, . . 0X9Xz j M.",
": C.,Xm X   tX/ .   I.-.X X  .oXP o   %Xz.    ..#Xo X C vXO o 1 '.'.O # h 0X% o = xXc O # 9XI.M K d.",
": >.;Xm X X tXA     I.5.  X | 4X'   o %Xx.    #.mXX X n bX$ X = +X4X;   a tX7 o O bXK   O &.V.Z v A.",
": z.V.l +   wXZ .   U.=.    <.4X'   X L.n.X X Y #.X X n bX0 o 1 +XXX@   1 rXj X o vXY   O [ S.Q G lX",
": 2XW.e   o bXB     2X-.X   ;.|.Y # $ P.n.X X x Y   o j bX-   # XX+X# o > bXx X   7X...   C.}.Q M Z.",
"e W.W.e O O xXC   o 2X_     ;.5X! # @ P.x.  @ $.nX  7 n wX% . @ T.4X= . = bXn X   %Xl.  + >.3X{ b &X",
"e W.2X: . 3 xXl .   tX_ O O 5.3XQ @ . #XK.  @ O.xX# @ G xX> o . OXOX1   @ bXK X   #Xx.  + ] w.Q D h.",
"r ! :X= X 2 bXa o   8X' X X 9.3X$.o . C.C.  @ $.wX$ 2 j wXm 3   OX+Xt X X 8X'   . c.$X  @ Z F.;.n J ",
"m :.:XO o 2 xX1     <XP     S.3XQ o   K.C.  2 ' nX= * F 8Xd 3   oX+Xp X # 7X'     :.8X  O P ,.5.j F ",
"d 0X7XX X j 8X1 o @ wXA X   <.E.P   . $XK.  2 ..BX0 7 x tXB %   J.{.z @ X <X:.o   ..8X  O l +XT.c 9 ",
"h <X;Xo X 7 xX%   . rXh   X | 3XL . . P.>.  X 7 c.@ $ 7 eXV @   3.oXC @ @ %X>.    K bX  @ 1 [.'.n x ",
"m D.D.  . m eXO   + 0Xm     7.^.B .   F.yX= # <.oXh X ) 5Xs +   0.Y.Z o   V.V.+   b <X+ o @ 6XH.n E ",
"e ;XV.B d 5.}.} a P E.;.a V (./.8.e m 5.w.+X6X|.[.+X4X0.q.5.e z {.!.H.i d -.I.B u F.|.{ a $.-.S.D D ",
"z ;.7.).).t.t.p.`.4.1.e..X_.t.i.t.+X(. .e.w.*.*.>.| 9.e.6.w. X X!./.y.(. X(  .^..Xw.r.OX> ] { F.H F ",
"l ;XS. .w.r.).!.!.!.H.}.{.Y.w.r.w.w.R.OXw.E.Q ..r @ V [.'. X~.4.4.1.(..X0.F.Y.Y.~._.).}.m ! L.>.y E ",
"v 5 * t : : : , t : * & , & y & : e : y r r v v y 5 6 5 r t r t 6 , 6 t r 4 6 6 k t w ; y 8 * +.E a.",
"f.T T f.f.f.g.g.f.^ ^ ^ ~ T I J F J J T D G v D J J J D J J G I T I T J D I I H D H ^ T ^ +.R d.a.s."
};
