/* XPM */
static char *_fa7a74be07a4a10e0be987fe5897dc1MI4TsbnhkjyR4UAu[] = {
/* columns rows colors chars-per-pixel */
"50 50 233 2 ",
"   c #030402",
".  c #171A19",
"X  c #2B140A",
"o  c #1F201D",
"O  c #3B2514",
"+  c #1D2626",
"@  c #1D2D34",
"#  c #282A25",
"$  c #2A2E2B",
"%  c #372827",
"&  c #2D322E",
"*  c #33342E",
"=  c #252F36",
"-  c #243335",
";  c #2A3334",
":  c #293738",
">  c #2B3A3A",
",  c #323632",
"<  c #383735",
"1  c #393A35",
"2  c #333B3C",
"3  c #3C3D3A",
"4  c #482B0A",
"5  c #532E05",
"6  c #58340A",
"7  c #483217",
"8  c #5E3B13",
"9  c #55361A",
"0  c #663E0D",
"q  c #633E13",
"w  c #4C382D",
"e  c #483A3B",
"r  c #2E413F",
"t  c #33423F",
"y  c #3E413C",
"u  c #5F4117",
"i  c #6B4B0C",
"p  c #6A4517",
"a  c #774C1A",
"s  c #7D501D",
"d  c #42433E",
"f  c #4C473C",
"g  c #664B24",
"h  c #774F22",
"j  c #785628",
"k  c #654E38",
"l  c #724930",
"z  c #735A3A",
"x  c #75633A",
"c  c #2D3B41",
"v  c #323D42",
"b  c #3A3F45",
"n  c #334344",
"m  c #384748",
"M  c #3A444B",
"N  c #354A48",
"B  c #3C4B4A",
"V  c #394952",
"C  c #3E5158",
"Z  c #444541",
"A  c #494A45",
"S  c #44494A",
"D  c #4D4E4B",
"F  c #514342",
"G  c #49524D",
"H  c #50514C",
"J  c #464E56",
"K  c #455254",
"L  c #4A5859",
"P  c #555551",
"I  c #575856",
"U  c #54595D",
"Y  c #5E5D5A",
"T  c #665345",
"R  c #7D5347",
"E  c #635C5C",
"W  c #50615F",
"Q  c #62615A",
"!  c #7B6D51",
"~  c #4E5D62",
"^  c #555D63",
"/  c #596265",
"(  c #586567",
")  c #5C6B6B",
"_  c #5D6B71",
"`  c #6B6B66",
"'  c #646969",
"]  c #6B6C6A",
"[  c #73726E",
"{  c #676D74",
"}  c #647273",
"|  c #6E7071",
" . c #6A7479",
".. c #6A797A",
"X. c #767675",
"o. c #7A7A75",
"O. c #804E1B",
"+. c #83531C",
"@. c #865926",
"#. c #935D23",
"$. c #815E34",
"%. c #8A672D",
"&. c #98652B",
"*. c #876938",
"=. c #986C36",
"-. c #98773B",
";. c #A46C2B",
":. c #AB722E",
">. c #AD7535",
",. c #845A52",
"<. c #8E724E",
"1. c #AD6B5B",
"2. c #926C66",
"3. c #B07F71",
"4. c #739753",
"5. c #6F807A",
"6. c #948248",
"7. c #9B9753",
"8. c #B58856",
"9. c #938C6E",
"0. c #82827E",
"q. c #A3876B",
"w. c #9CA060",
"e. c #AFA875",
"r. c #C9947B",
"t. c #A9C475",
"y. c #546984",
"u. c #6B7984",
"i. c #737E85",
"p. c #788585",
"a. c #768288",
"s. c #73868C",
"d. c #6B97AD",
"f. c #8A8986",
"g. c #958885",
"h. c #8B908C",
"j. c #98948B",
"k. c #848C96",
"l. c #889399",
"z. c #9E9B96",
"x. c #AD958A",
"c. c #A59C97",
"v. c #99A39B",
"b. c #A9A08E",
"n. c #AAA596",
"m. c #A5A29D",
"M. c #B7A999",
"N. c #B1B592",
"B. c #8790B1",
"V. c #9CAFB2",
"C. c #A7A5A2",
"Z. c #ADAAA5",
"A. c #B2ACA4",
"S. c #BEAEA3",
"D. c #B2ADAA",
"F. c #B6B5A2",
"G. c #B5B2AD",
"H. c #BBB4AC",
"J. c #AAACB1",
"K. c #A9B5BD",
"L. c #B7B4B4",
"P. c #BAB6B4",
"I. c #BDB9B5",
"U. c #BEBAB9",
"Y. c #D39283",
"T. c #E99684",
"R. c #CFB392",
"E. c #E7A495",
"W. c #D2AEA0",
"Q. c #C7B9A6",
"!. c #D1B7A9",
"~. c #C2BCB6",
"^. c #CBBEB2",
"/. c #C2BDBC",
"(. c #ADC39C",
"). c #DDC29E",
"_. c #C9D794",
"`. c #EBDE9F",
"'. c #C5CFA0",
"]. c #D4C3A7",
"[. c #CAC4B3",
"{. c #C5C1BE",
"}. c #CAC4BD",
"|. c #D3C6BA",
" X c #E9D7B3",
".X c #F1EDAD",
"XX c #A7B5C4",
"oX c #BABFC0",
"OX c #BDD6DC",
"+X c #C6C2C1",
"@X c #CAC5C3",
"#X c #CDC9C5",
"$X c #C4CDCF",
"%X c #CDCBC8",
"&X c #D5CCC3",
"*X c #DACDC5",
"=X c #D3CDCC",
"-X c #D6D1CD",
";X c #DAD6CA",
":X c #DBD5CD",
">X c #CBD2D4",
",X c #D7D1D1",
"<X c #DAD5D3",
"1X c #DED9D5",
"2X c #DED7D9",
"3X c #DFDAD8",
"4X c #E3DACC",
"5X c #E1DCD5",
"6X c #E2DDD9",
"7X c #E9DFD8",
"8X c #DEE1C7",
"9X c #E5E9C7",
"0X c #F2F4CE",
"qX c #E5E6D4",
"wX c #EBE5D4",
"eX c #E5E3DC",
"rX c #E9E5DE",
"tX c #ECEBDB",
"yX c #F3E8D9",
"uX c #DBE8E7",
"iX c #E5E4E3",
"pX c #EAE7E1",
"aX c #EDEAE3",
"sX c #EEEBE8",
"dX c #F1EDE6",
"fX c #F1EEE9",
"gX c #F4F0E7",
"hX c #F4F1EB",
"jX c #FAF4ED",
"kX c #EDF6F4",
"lX c #F6F7F6",
"zX c #FDFAF3",
"xX c #FEFFFD",
/* pixels */
"^.rX<X. 1 f.jXeXeXeXqXeX@XP./.U.{.{.}.{.#X{.eXqX9X0X0X9X%X@X%X+X+XU.I./.P.{.qX1X5X6XrXjX5.D < &X&X&X",
"dXhXhX* d Q zXaXaXrXeXeXrX#XI.{.{.{./././.+X<XqX<.g u M.P.{.{.{.I./.I.P.1XdXaXaXpXpXpXzX[ H d dXhX4X",
"1XdXxXd H Q zXrXpXaXpXpXrXdXgXeX@X#X{.#X@X@X[.z x -.*.O ! I./.U.{./.6XgXaXaXaXaXrXaXaXxX] P A xXaX1X",
"# * 3 I P H xXaXaXaXaXpXrXeXpX1X#X,XdXdXsX%Xe.@.&.+.p g X H.sXaX#XI.=XaXpXpXaXaXaXaXrXzXD P P y 1 1 ",
"d A P A H d 6XdXaXaXpXrXpXaXaX1X/.sXaXaXaXdX6.;.#.+.O.0 5 T rXpXaXG.1XaXaXrXrXiXaXaXdXeXd P D f H d ",
"[ [ ` d y y Z.hXaXpXeXrXeXrXrXaXrXaXaXaXrX1X%.:.#.+.@.O.6 O dXpXaXrXaXpXrXpXpXpXrXaXhXZ.Z y d Y [ 0.",
"hXzXzXxXeXC.h.jXaXaXeXrXrXrXrXrXpXrXaXpXrXA.%.>.#.O.a a 6 . pXaXaXpXpXpXrXrXpXpXaXaXhXf.C.eXxXxXjXjX",
"rXaXaXaXaXhXgX<X3X6XeXrXrXpXaXaXrXpXpXaXaXm.*.:.#.a a 6 4 O pXpXaXaXeXaXpXpXaX6X1X<X<XjXgXaXrXrXtXaX",
"4XaXeXpXpXaXaX1X1X5X6X2X6XaXpXrXpXpXaXrX5Xg.=.:.=.@.a q 5 9 7XaXaXaXaXaXaX3X=X,X-X1X<XaXpXaXaXpXiXeX",
":XaXrXrXrXaXaX6X<X6X6X6X6X<XpXrXrXaXrXpX&Xc.-.>.;.@.$.h q k aXaXpXpXaXaX1X<X<X,X<X<X1XaXrXrXrXrXaX5X",
"1XpXaXaXaXpXaXeX1X3X3X6X6X2X5XiXaXrXaXrXrXdX=.;.;.=.@.O.O 3.iXaXpXaXpX<X1X1X,X=X<X-XeXiXiXtXpXpXeXqX",
"4XaXaXaXpXaXaXaX<X6X1X6X2X6X5X2XaXaXaXaXrXrX8.&.;.#.@.0 5 !.aXaXaXaX3X1X<X<X<X-X:X<XaXaXpXpXrXpXpXeX",
"A.fXaXaXaXaXaXaXeX<X6X6X6X3X6X6X6XsXpXaXeXrXrX%.&.&.s 5 z 4XdXyXsX6X1X3X<X,X,X=X-X3XaXaXaXaXrXrXaX@X",
"m.-XdXrXaXaXdXaXaX6X6X6X6X6X7XiXaXsXsXaXtXrXrX Xa &.%.p e.yXaXaXaX<X2X<X<X<X-X<X<XaXpXrXaXrXeXrX}.G.",
"H.P.hXaXaXrXaXaXfXdX3X6XiXsXiXuX#XrXzXdXfXkXdXrX0Xj j p `.dXaXaXeX2X1X<X,X:X=X<XpXpXaXrXeXpXaXaXD.~.",
"G.P.6X<XeXaXaXaXaXaXdX6XsXsXiXiXrX;X|.gXjXaXlXhXaXtXp p .XaXaXdX1X<X<X<X,X<X<XpXaXrXpXrXpX<X}.<XD.P.",
"A.I.+X@X#XrXaXsXaXaXaXgXsX6X3XQ.}.rXgX4XiXjXfXlXfXfX`.i .XaXaXpX,X<X<X,X,X6XaXaXrXpXaXrXeXD.Z.G.P.D.",
"P.I.U.,XhXaXaXaXaXaXaXaXsXsXaXrX;X^.&XyX7X7XhXsXiX*X9X<. XaXfXdX,X,X<XeXaXpXpXpXrXpXrXpXsXgX#XP.P./.",
"+X/./.fXdXaXaXgXfXaXaXdXaXaXF.[.*X@X=X~.*XjX2XoX{ ' :XQ.'.].A.c.0XtXaXpXrXpXaXpXrXrXaXaXaXpXaXU./.<X",
"/./.%XfXpXaXaXaXaXaXsXaXaXaX|.^.Q.Q.H.|.^.^.+Xe h.xXp./ 3 f 7 x.gXwXfXaXaXrXaXrXrXeXaXrXaXaXgX/./.#X",
"L./.+XfXpXaXdXdX1X@XaXaXaXaXlX[.^.!.M.b.M.F.L.c hX  l.} _ J ; < !.tXpXpXaXaXrXaX{.-XpXrXaXpXgXP./.@X",
"@XP./.=XhXdXgXaX+X{.gXpXpXpXaXc.x.c.n.W.M.F.J.. v.h.) ) J J   E q.rXpXpXrXrXpXdX{.P.rXdXdXdX@XU.I.L.",
"dX1X+X/.+X<X,X+X+X-XhXaXaXpXrXpXA.M.2.,.<.,.U c U 3 2 B G r & Q pXaXrXpXaXaXaXdX#XI.G.@X<X#X/./.<XrX",
"eXdXrX/.+X@X@X@X@X+X+X%XaXrXpXpXaX|.,.r.1.l e b S 2 $ t 1 . & x.pXpXrXrXrXrX#XU.{././.U./././.1XdX6X",
"6XaXgX+X@X+X+X+X/.+X@X+XJ.6XrXpXpXyX3.E.T.Y.2.e < $ * F f U j.jXpXpXrXpXeXL./.+XU./.+X/.+X+XP.gXrXrX",
":XaXfX/.@X@X+X+X+X{.@X+X/.6XaXaXiXfXW.Y.E.E.,.% * , & $ E | g.lXpXpXpXpXqXP.I./.+X+X@X@X@X@XU.dXrX<X",
"6XrX5XU.%X+X@X@X@X{./.#XpXaXpXaXpXpXzXyX!.M.@X, * + m ' J b ,.zXjXrXqXaXpXrX#XI./.@X/././.+X/.5XpX5X",
"rX5X/./.@X,X=XU.@X-XhXhXdXaXpXaXpXaXjXo.L.xXlX+ & t P p.u.' ,. XlXpXrXiXiXpXaXhX@X/.I.%X<X/.I.I.:XaX",
"G.U.+X#XdXaXfXaX/.+XaXaXaXaXaXaXaXaXzXH A ,XJ.- r B } 5.u.d 9 R.tXaXrXrXaXaXaXaXG.U.aXaXaXgX%X~.D.I.",
"G.U.+XgXaXpXaXdX<X@XaXaXaXaXdXaXaXaXdXA P xX( c & B ) p.{ % T :XaXeXrXrXrXrXrXdX@X<XfXaXpXpXsXP.G.I.",
"{.U.@XhXpXaXaXaXrXpXpXaXaXaXaXaXpXfXD.Z A %X$ n N N L | i.F T j.gXeXrXpXpXpXaXpXaXrXaXpXpXpXaX+XH.C.",
"=X/./.dXaXpXaXaXpXrXpXaXsXaXaXaXaXdXz.G.sXA - n C N ^ p.I # w k aXeXaXaXrXrXpXrXaXaXpXaXpXeXpXD.G.m.",
"P.U.@X-XdXaXaXaXaXaXaXaXaXaX6X5X,X,XaXgXB.+ : = m G n ~ N y 7 7 :X-X<X3XeXaXpXaXaXaXaXrXrXaX}.D.D.m.",
"G.U.@X@X+XrXaXpXrXrXrXaX6X,X<X,X,X,XaXpXS ; = @ > D K L n v.f 4 (.<X1X,X<X6XaXaXaXaXaXaXrXL.L.A.m.j.",
"H.U.6X<XiXdXpXaXaXaXaX<X<X,X,X<X=X,XeXXX2 ; = @ - = c > s.uX9.O 9.<X<X=X,X1X1XaXsXaXaXaXsX-X}.=Xc.j.",
"G.oXgXsXsXsXaXpXaXpX3X<X<X<X<X1X:XeXrX2 2 = c = = + n a.s.kXF.4 x ,X-X1X<X3X6X6XaXaXdXaXtXaXaXdXD.D.",
"G.<XpXaXaXsXsXpXdX3X1X1X1X<X1X1X-XrXd.t 2 M K m ~ ..a.k.k.lX>X7 u <X<X1X1X1X3X3X6XdXaXaXaXrXeXeX@Xm.",
"Z.hXaXaXaXfXsXaX6X<X6X<X5X2X3X<X1XaX> t K J m } .. .i.a.l.lXqX7 8 (.<X1X1X3X3X1X6XeXaXpXrX6XeXrXaXD.",
":XaXaXsXfXsXsXsX,X3X<X6X<X6X1X<XaX: > n K K ) } } i.} i.l.kXuXR 6 w.:X,X3X3X3X3X6X,XpXrXrXrXaX5XpX5X",
"4XaXaXsXsXaXsXaX<X6X1X1X1X<X1XpXeX# t m m K ( } ..} ) a.s.uXiX9.5 %.eX<X1X3X3X3X5X,X6XaXrXaXaX5X5X1X",
"*XsXaXpXsXsXfX6X6X1X1X6X<X<XpXpXV.; n m 2 S W } ' ' u.i.} OXsX[.5 p 8XeX<X3X1X6X,X<X5XpXrXrXrXeX6X4X",
"5XaXaXsXsXsXsX6XeX2X1X<X6XaXeXpX[ ; n J K v C / / ^ ^ u.V >XtXrX4 6 _.eXpX6X<X1X<X,X,XrXdXaXrXrXeX|.",
"5XaXaXsXsXhXfX6X6X6XeXaXdXeXpXeXK.$ c V ~ ( C ( ^ U _ _ V uXgXrX7 q 7.iXeXrXrX1X<X,X=XjXhXaXeXpX6X*X",
"gXjXzXxXiX/.m.lXsXsXaXiXpXpXeXeXXX+ N V ( _ ..) ^ ^ } ~ C $XaXaX! 8 j qXrXrXrXaXaXrXhX0.C.5XxXzXhXtX",
"` ] X.' ' ' P.hXgXyXwX X].S.j.[ m ; N n L ) ..} ^ ^ { v C eXpXaX(.6 u 8XqXrXrXrXrXrXdXm.1 1 d I ` [ ",
"2.v Y ` X.| 6XfX|.r.R.).].;X1XoXu.+ > > K ( L k.^ U D , U pXaXaX8X7 u _.9XrXrXrXrXeXaX5X3 d e y * # ",
"e # d ` ] ] zXaXx.dXqX5XeXpXtX1XL.y.. + f Y P ^ J v % w s.fXfXfX@X4 i 7.qXrXeXrXrXrXaXxX* y d $ # o ",
"5X6XxXA I X.jXpX&X!.|.eXrXpXaXeX+XU.G.s.B f ^ J B.OX$Xv.U.I.{.U.P.7 p g tXtXrXrXeXrXrXzXP y # xXrX|.",
"eXaXpX* D o.dXeXrXrXeXeXdX:X/./././.+X/./.k.XX6XiXdXfX5X/./././.I.4.7 7 _.tXtXeXeXrXiXzXP 1 . 5XrX&X",
"1XeX;XP Q h.7X4X<X5XeXeXC.Z.D.G.G.+X+XI.+X/.aX*X*X4XeXrXZ.D.D.A.C.N.t.N.C.oXeX1X[.|.;XdXI   . ;XrXM."
};
